<svg xmlns="http://www.w3.org/2000/svg" viewBox="0 0 1200 1080" width="1200" height="1080">
  <style>
    text { font-family: "Helvetica Neue", Helvetica, Arial, "PingFang SC", "Microsoft YaHei", "Microsoft JhengHei", "SimHei", sans-serif; }
  </style>
  <defs>
    <marker id="ab" markerWidth="10" markerHeight="7" refX="9" refY="3.5" orient="auto"><polygon points="0 0, 10 3.5, 0 7" fill="#2563eb"/></marker>
    <marker id="ag" markerWidth="10" markerHeight="7" refX="9" refY="3.5" orient="auto"><polygon points="0 0, 10 3.5, 0 7" fill="#16a34a"/></marker>
    <marker id="ap" markerWidth="10" markerHeight="7" refX="9" refY="3.5" orient="auto"><polygon points="0 0, 10 3.5, 0 7" fill="#9333ea"/></marker>
    <marker id="ao" markerWidth="10" markerHeight="7" refX="9" refY="3.5" orient="auto"><polygon points="0 0, 10 3.5, 0 7" fill="#ea580c"/></marker>
    <marker id="ay" markerWidth="10" markerHeight="7" refX="9" refY="3.5" orient="auto"><polygon points="0 0, 10 3.5, 0 7" fill="#6b7280"/></marker>
    <filter id="sh" x="-4%" y="-4%" width="108%" height="112%"><feDropShadow dx="0" dy="1" stdDeviation="2" flood-color="#000" flood-opacity="0.06"/></filter>
  </defs>
  <rect width="1200" height="1080" fill="#ffffff"/>
  <text x="600" y="36" text-anchor="middle" font-size="17" font-weight="600" fill="#111827">WiFi 空口抓包全维度分析流程</text>
  <rect x="30" y="55" width="1140" height="55" rx="8" fill="#f0fdfa" stroke="#99f6e4" stroke-width="1.2" stroke-dasharray="6,3"/>
  <text x="50" y="73" font-size="10" fill="#0d9488" font-weight="600">LAYER 1 · 原始抓包输入</text>
  <g filter="url(#sh)"><rect x="100" y="73" width="160" height="28" rx="5" fill="#ccfbf1" stroke="#5eead4" stroke-width="1.2"/><text x="180" y="92" text-anchor="middle" font-size="11" font-weight="600" fill="#115e59">pcapng</text></g>
  <g filter="url(#sh)"><rect x="300" y="73" width="160" height="28" rx="5" fill="#ccfbf1" stroke="#5eead4" stroke-width="1.2"/><text x="380" y="92" text-anchor="middle" font-size="11" font-weight="600" fill="#115e59">OmniPeek .pkt</text></g>
  <g filter="url(#sh)"><rect x="500" y="73" width="200" height="28" rx="5" fill="#fff7ed" stroke="#fed7aa" stroke-width="1.2"/><text x="600" y="92" text-anchor="middle" font-size="11" fill="#9a3412">Radiotap + 802.11 Raw</text></g>
  <text x="770" y="92" font-size="10" fill="#6b7280">信号 · 噪声 · 信道 · 速率 · 天线</text>
  <line x1="180" y1="101" x2="180" y2="125" stroke="#2563eb" stroke-width="1.5" marker-end="url(#ab)"/>
  <line x1="380" y1="101" x2="380" y2="125" stroke="#2563eb" stroke-width="1.5" marker-end="url(#ab)"/>
  <rect x="30" y="118" width="1140" height="62" rx="8" fill="#eff6ff" stroke="#bfdbfe" stroke-width="1.2" stroke-dasharray="6,3"/>
  <text x="50" y="136" font-size="10" fill="#2563eb" font-weight="600">LAYER 2 · 802.11 帧解码</text>
  <g filter="url(#sh)"><rect x="80" y="141" width="130" height="28" rx="5" fill="#dbeafe" stroke="#93c5fd" stroke-width="1.2"/><text x="145" y="160" text-anchor="middle" font-size="10.5" font-weight="600" fill="#1e40af">Radiotap 解析</text></g>
  <g filter="url(#sh)"><rect x="240" y="141" width="130" height="28" rx="5" fill="#dbeafe" stroke="#93c5fd" stroke-width="1.2"/><text x="305" y="160" text-anchor="middle" font-size="10.5" font-weight="600" fill="#1e40af">MAC Header</text></g>
  <g filter="url(#sh)"><rect x="400" y="141" width="130" height="28" rx="5" fill="#dbeafe" stroke="#93c5fd" stroke-width="1.2"/><text x="465" y="160" text-anchor="middle" font-size="10.5" font-weight="600" fill="#1e40af">Action Frame BA</text></g>
  <g filter="url(#sh)"><rect x="560" y="141" width="130" height="28" rx="5" fill="#dbeafe" stroke="#93c5fd" stroke-width="1.2"/><text x="625" y="160" text-anchor="middle" font-size="10.5" font-weight="600" fill="#1e40af">Control Frame</text></g>
  <g filter="url(#sh)"><rect x="720" y="141" width="130" height="28" rx="5" fill="#dbeafe" stroke="#93c5fd" stroke-width="1.2"/><text x="785" y="160" text-anchor="middle" font-size="10.5" font-weight="600" fill="#1e40af">DHCP Deep Parse</text></g>
  <g filter="url(#sh)"><rect x="880" y="141" width="130" height="28" rx="5" fill="#dbeafe" stroke="#93c5fd" stroke-width="1.2"/><text x="945" y="160" text-anchor="middle" font-size="10.5" font-weight="600" fill="#7c2d12">帧类型分类</text></g>
  <text x="1050" y="153" font-size="9" fill="#6b7280">ADDBA / DELBA / TID</text>
  <text x="1050" y="166" font-size="9" fill="#6b7280">RTS/CTS/ACK/BAR</text>
  <path d="M 145 169 L 145 196" stroke="#16a34a" stroke-width="1.2" fill="none" marker-end="url(#ag)"/>
  <path d="M 305 169 L 305 196" stroke="#16a34a" stroke-width="1.2" fill="none" marker-end="url(#ag)"/>
  <path d="M 465 169 L 465 196" stroke="#16a34a" stroke-width="1.2" fill="none" marker-end="url(#ag)"/>
  <path d="M 625 169 L 625 196" stroke="#16a34a" stroke-width="1.2" fill="none" marker-end="url(#ag)"/>
  <path d="M 785 169 L 785 196" stroke="#16a34a" stroke-width="1.2" fill="none" marker-end="url(#ag)"/>
  <path d="M 945 169 L 945 196" stroke="#16a34a" stroke-width="1.2" fill="none" marker-end="url(#ag)"/>
  <rect x="30" y="192" width="1140" height="90" rx="8" fill="#f0fdf4" stroke="#bbf7d0" stroke-width="1.2" stroke-dasharray="6,3"/>
  <text x="50" y="210" font-size="10" fill="#16a34a" font-weight="600">LAYER 3 · 数据提取 (Unified Result Dict)</text>
  <g filter="url(#sh)">
    <rect x="48" y="218" width="175" height="56" rx="5" fill="#dcfce7" stroke="#86efac" stroke-width="1"/>
    <text x="135" y="236" text-anchor="middle" font-size="10" font-weight="600" fill="#166534">帧统计</text>
    <text x="56" y="250" font-size="8.5" fill="#4b5563">Mgmt/Ctrl/Data 全子类型</text>
    <text x="56" y="260" font-size="8.5" fill="#4b5563">Beacon/Probe/RTS/CTS/ACK</text>
    <text x="56" y="270" font-size="8.5" fill="#4b5563">BAR/QoS Data/Null</text>
  </g>
  <g filter="url(#sh)">
    <rect x="228" y="218" width="175" height="56" rx="5" fill="#dcfce7" stroke="#86efac" stroke-width="1"/>
    <text x="315" y="236" text-anchor="middle" font-size="10" font-weight="600" fill="#166534">BA 事件</text>
    <text x="236" y="250" font-size="8.5" fill="#4b5563">ADDBA Req/Resp</text>
    <text x="236" y="260" font-size="8.5" fill="#4b5563">DELBA reason/initiator</text>
    <text x="236" y="270" font-size="8.5" fill="#4b5563">TID / buffer size</text>
  </g>
  <g filter="url(#sh)">
    <rect x="408" y="218" width="175" height="56" rx="5" fill="#dcfce7" stroke="#86efac" stroke-width="1"/>
    <text x="495" y="236" text-anchor="middle" font-size="10" font-weight="600" fill="#166534">断连/关联</text>
    <text x="416" y="250" font-size="8.5" fill="#4b5563">Deauth/Disassoc reason</text>
    <text x="416" y="260" font-size="8.5" fill="#4b5563">Auth/Assoc/Reassoc</text>
    <text x="416" y="270" font-size="8.5" fill="#4b5563">status code</text>
  </g>
  <g filter="url(#sh)">
    <rect x="588" y="218" width="175" height="56" rx="5" fill="#dcfce7" stroke="#86efac" stroke-width="1"/>
    <text x="675" y="236" text-anchor="middle" font-size="10" font-weight="600" fill="#166534">DHCP 交互</text>
    <text x="596" y="250" font-size="8.5" fill="#4b5563">DORA 每步详情</text>
    <text x="596" y="260" font-size="8.5" fill="#4b5563">NAK/超时/xid</text>
    <text x="596" y="270" font-size="8.5" fill="#4b5563">server/client MAC</text>
  </g>
  <g filter="url(#sh)">
    <rect x="768" y="218" width="175" height="56" rx="5" fill="#dcfce7" stroke="#86efac" stroke-width="1"/>
    <text x="855" y="236" text-anchor="middle" font-size="10" font-weight="600" fill="#166534">信号数据</text>
    <text x="776" y="250" font-size="8.5" fill="#4b5563">per-MAC 信号时序</text>
    <text x="776" y="260" font-size="8.5" fill="#4b5563">dbm_signal 样本</text>
  </g>
  <g filter="url(#sh)">
    <rect x="948" y="218" width="175" height="56" rx="5" fill="#dcfce7" stroke="#86efac" stroke-width="1"/>
    <text x="1035" y="236" text-anchor="middle" font-size="10" font-weight="600" fill="#166534">重传/时间</text>
    <text x="956" y="250" font-size="8.5" fill="#4b5563">per-MAC 重传计数</text>
    <text x="956" y="260" font-size="8.5" fill="#4b5563">重传率</text>
    <text x="956" y="270" font-size="8.5" fill="#4b5563">data_timestamps</text>
  </g>
  <path d="M 132 272 L 132 300" stroke="#9333ea" stroke-width="1" fill="none" marker-end="url(#ap)"/>
  <path d="M 312 272 L 312 300" stroke="#9333ea" stroke-width="1" fill="none" marker-end="url(#ap)"/>
  <path d="M 492 272 L 492 300" stroke="#9333ea" stroke-width="1" fill="none" marker-end="url(#ap)"/>
  <path d="M 672 272 L 672 300" stroke="#9333ea" stroke-width="1" fill="none" marker-end="url(#ap)"/>
  <path d="M 852 272 L 852 300" stroke="#9333ea" stroke-width="1" fill="none" marker-end="url(#ap)"/>
  <path d="M 1042 272 L 1042 300" stroke="#9333ea" stroke-width="1" fill="none" marker-end="url(#ap)"/>
  <rect x="30" y="295" width="1140" height="160" rx="8" fill="#faf5ff" stroke="#ede9fe" stroke-width="1.2" stroke-dasharray="6,3"/>
  <text x="50" y="313" font-size="10" fill="#9333ea" font-weight="600">LAYER 4 · 自动问题检测 (detect_*_issues)</text>
  <rect x="820" y="303" width="340" height="14" rx="3" fill="#eff6ff" stroke="#93c5fd" stroke-width="0.8"/>
  <text x="825" y="313" font-size="8" font-weight="600" fill="#2563eb">连接性/网络接入 (表层)</text>
  <rect x="820" y="319" width="340" height="14" rx="3" fill="#faf5ff" stroke="#c4b5fd" stroke-width="0.8"/>
  <text x="825" y="329" font-size="8" font-weight="600" fill="#9333ea">协议/Block Ack (上层)</text>
  <rect x="820" y="335" width="340" height="14" rx="3" fill="#f0fdf4" stroke="#86efac" stroke-width="0.8"/>
  <text x="825" y="345" font-size="8" font-weight="600" fill="#16a34a">帧质量 (中层)</text>
  <rect x="820" y="351" width="340" height="14" rx="3" fill="#fff7ed" stroke="#fdba74" stroke-width="0.8"/>
  <text x="825" y="361" font-size="8" font-weight="600" fill="#ea580c">射频质量 (底层)</text>
  <line x1="806" y1="358" x2="806" y2="310" stroke="#6b7280" stroke-width="1" marker-end="url(#ay)"/>
  <text x="804" y="337" text-anchor="end" font-size="7" fill="#6b7280" transform="rotate(-90,804,334)">因果方向 ↑</text>
  <g filter="url(#sh)">
    <rect x="80" y="373" width="210" height="70" rx="5" fill="#ede9fe" stroke="#c4b5fd" stroke-width="1"/>
    <text x="185" y="389" text-anchor="middle" font-size="10.5" font-weight="600" fill="#6d28d9">Block Ack 问题</text>
    <text x="88" y="402" font-size="8.5" fill="#6b7280">DELBA风暴 &gt;5/s</text>
    <text x="88" y="412" font-size="8.5" fill="#6b7280">BA循环 &lt;2s</text>
    <text x="88" y="422" font-size="8.5" fill="#6b7280">TID不匹配·ADDBA失败</text>
  </g>
  <g filter="url(#sh)">
    <rect x="295" y="373" width="210" height="70" rx="5" fill="#ede9fe" stroke="#c4b5fd" stroke-width="1"/>
    <text x="400" y="389" text-anchor="middle" font-size="10.5" font-weight="600" fill="#6d28d9">断连问题</text>
    <text x="303" y="402" font-size="8.5" fill="#6b7280">频繁断连 &gt;3次</text>
    <text x="303" y="412" font-size="8.5" fill="#6b7280">Deauth / Disassoc</text>
    <text x="303" y="422" font-size="8.5" fill="#6b7280">Reason Code 归因</text>
  </g>
  <g filter="url(#sh)">
    <rect x="510" y="373" width="210" height="70" rx="5" fill="#ede9fe" stroke="#c4b5fd" stroke-width="1"/>
    <text x="615" y="389" text-anchor="middle" font-size="10.5" font-weight="600" fill="#6d28d9">帧质量问题</text>
    <text x="518" y="402" font-size="8.5" fill="#6b7280">弱信号 &lt;-70dBm</text>
    <text x="518" y="412" font-size="8.5" fill="#6b7280">信号突降 &gt;15dBm</text>
    <text x="518" y="422" font-size="8.5" fill="#6b7280">重传 &gt;5% MEDIUM</text>
    <text x="518" y="432" font-size="8.5" fill="#6b7280">重传 &gt;15% HIGH</text>
  </g>
  <g filter="url(#sh)">
    <rect x="725" y="373" width="210" height="70" rx="5" fill="#ede9fe" stroke="#c4b5fd" stroke-width="1"/>
    <text x="830" y="389" text-anchor="middle" font-size="10.5" font-weight="600" fill="#6d28d9">DHCP 问题</text>
    <text x="733" y="402" font-size="8.5" fill="#6b7280">NAK · 无Offer</text>
    <text x="733" y="412" font-size="8.5" fill="#6b7280">Request被NAK</text>
    <text x="733" y="422" font-size="8.5" fill="#6b7280">多轮DORA · 重传</text>
  </g>
  <g filter="url(#sh)">
    <rect x="940" y="373" width="210" height="70" rx="5" fill="#ede9fe" stroke="#c4b5fd" stroke-width="1"/>
    <text x="1045" y="389" text-anchor="middle" font-size="10.5" font-weight="600" fill="#6d28d9">帧统计异常</text>
    <text x="948" y="402" font-size="8.5" fill="#6b7280">RTS/CTS占比过高</text>
    <text x="948" y="412" font-size="8.5" fill="#6b7280">QoS Data占比低</text>
    <text x="948" y="422" font-size="8.5" fill="#6b7280">Null帧占比高</text>
    <text x="948" y="432" font-size="8.5" fill="#6b7280">管理帧开销大</text>
  </g>
  <path d="M 185 443 L 185 458" stroke="#2563eb" stroke-width="1.2" fill="none" marker-end="url(#ab)"/>
  <path d="M 400 443 L 400 458" stroke="#2563eb" stroke-width="1.2" fill="none" marker-end="url(#ab)"/>
  <path d="M 615 443 L 615 458" stroke="#2563eb" stroke-width="1.2" fill="none" marker-end="url(#ab)"/>
  <path d="M 830 443 L 830 458" stroke="#2563eb" stroke-width="1.2" fill="none" marker-end="url(#ab)"/>
  <path d="M 1045 443 L 1045 458" stroke="#2563eb" stroke-width="1.2" fill="none" marker-end="url(#ab)"/>
  <rect x="30" y="460" width="1140" height="245" rx="8" fill="#fef2f2" stroke="#fecaca" stroke-width="1.2" stroke-dasharray="6,3"/>
  <text x="50" y="478" font-size="10" fill="#dc2626" font-weight="600">LAYER 5 · 分析框架 (AI + 人工分析维度)</text>
  <g filter="url(#sh)">
    <rect x="45" y="486" width="155" height="207" rx="6" fill="#ffffff" stroke="#fca5a5" stroke-width="1.2"/>
    <rect x="45" y="486" width="155" height="26" rx="6" fill="#fef2f2" stroke="#fca5a5" stroke-width="1.2"/>
    <text x="122" y="504" text-anchor="middle" font-size="10.5" font-weight="600" fill="#991b1b">A. 连接流程</text>
    <text x="55" y="526" font-size="8.5" fill="#374151">Probe → Auth → Assoc</text>
    <text x="55" y="538" font-size="8.5" fill="#374151">→ DHCP → 数据传输</text>
    <line x1="55" y1="545" x2="190" y2="545" stroke="#e5e7eb" stroke-width="0.5"/>
    <text x="55" y="559" font-size="8" fill="#6b7280">• Auth/Assoc status code</text>
    <text x="55" y="572" font-size="8" fill="#6b7280">• DORA 各步耗时</text>
    <text x="55" y="585" font-size="8" fill="#6b7280">• 连接后快速断开</text>
    <text x="55" y="598" font-size="8" fill="#6b7280">• 阶段间隔异常</text>
    <text x="55" y="615" font-size="8" fill="#dc2626">适用:</text>
    <text x="55" y="627" font-size="8" fill="#dc2626">入网慢/连不上/断连</text>
  </g>
  <g filter="url(#sh)">
    <rect x="210" y="486" width="190" height="207" rx="6" fill="#ffffff" stroke="#fca5a5" stroke-width="1.2"/>
    <rect x="210" y="486" width="190" height="26" rx="6" fill="#fef2f2" stroke="#fca5a5" stroke-width="1.2"/>
    <text x="305" y="504" text-anchor="middle" font-size="10.5" font-weight="600" fill="#991b1b">B. 帧质量 (必检)</text>
    <text x="220" y="526" font-size="9" font-weight="600" fill="#374151">B1 重传分析</text>
    <text x="220" y="539" font-size="8" fill="#6b7280">&lt;5% 正常 · 5~15% 偏高</text>
    <text x="220" y="551" font-size="8" fill="#6b7280">&gt;15% 严重 · 趋势变化</text>
    <text x="220" y="566" font-size="9" font-weight="600" fill="#374151">B2 信号与噪声</text>
    <text x="220" y="579" font-size="8" fill="#6b7280">弱信号&lt;-70dBm</text>
    <text x="220" y="591" font-size="8" fill="#6b7280">突降&gt;10dBm · SNR</text>
    <text x="220" y="606" font-size="9" font-weight="600" fill="#374151">B3 聚合效率</text>
    <text x="220" y="619" font-size="8" fill="#6b7280">帧大小分布 · A-MPDU</text>
    <text x="220" y="631" font-size="8" fill="#6b7280">QoS Data占比 · Null帧</text>
    <text x="220" y="646" font-size="9" font-weight="600" fill="#374151">B4 控制帧分析</text>
    <text x="220" y="659" font-size="8" fill="#6b7280">RTS/CTS占比(隐藏节点)</text>
    <text x="220" y="671" font-size="8" fill="#6b7280">BAR与数据帧比例</text>
    <text x="220" y="683" font-size="8" fill="#6b7280">ACK确认效率</text>
  </g>
  <g filter="url(#sh)">
    <rect x="410" y="486" width="175" height="207" rx="6" fill="#ffffff" stroke="#fca5a5" stroke-width="1.2"/>
    <rect x="410" y="486" width="175" height="26" rx="6" fill="#fef2f2" stroke="#fca5a5" stroke-width="1.2"/>
    <text x="497" y="504" text-anchor="middle" font-size="10.5" font-weight="600" fill="#991b1b">C. Block Ack</text>
    <text x="420" y="526" font-size="8" fill="#6b7280">• DELBA/ADDBA 方向</text>
    <text x="420" y="539" font-size="8" fill="#6b7280">• TID 匹配检查</text>
    <text x="420" y="552" font-size="8" fill="#6b7280">• DELBA→ADDBA 循环</text>
    <text x="420" y="565" font-size="8" fill="#6b7280">• BA 风暴检测</text>
    <text x="420" y="578" font-size="8" fill="#6b7280">• ADDBA Response 失败</text>
    <text x="420" y="591" font-size="8" fill="#6b7280">• BA buffer size</text>
    <text x="420" y="604" font-size="8" fill="#6b7280">• BA事件↔重传率关联</text>
    <line x1="420" y1="614" x2="575" y2="614" stroke="#e5e7eb" stroke-width="0.5"/>
    <text x="420" y="629" font-size="8" fill="#dc2626">适用: 吞吐低/断流/掉包</text>
    <text x="420" y="646" font-size="8" fill="#9333ea">关键:</text>
    <text x="420" y="658" font-size="8" fill="#9333ea">DELBA紧跟高重传</text>
    <text x="420" y="670" font-size="8" fill="#9333ea">= BA窗口被打乱</text>
  </g>
  <g filter="url(#sh)">
    <rect x="595" y="486" width="165" height="207" rx="6" fill="#ffffff" stroke="#fca5a5" stroke-width="1.2"/>
    <rect x="595" y="486" width="165" height="26" rx="6" fill="#fef2f2" stroke="#fca5a5" stroke-width="1.2"/>
    <text x="677" y="504" text-anchor="middle" font-size="10.5" font-weight="600" fill="#991b1b">D. DHCP</text>
    <text x="605" y="526" font-size="8" fill="#6b7280">• DORA 完整性</text>
    <text x="605" y="539" font-size="8" fill="#6b7280">• NAK / 超时 / 无响应</text>
    <text x="605" y="552" font-size="8" fill="#6b7280">• 同一xid重传次数</text>
    <text x="605" y="565" font-size="8" fill="#6b7280">• 多轮DHCP趋势</text>
    <text x="605" y="578" font-size="8" fill="#6b7280">• DHCP阶段帧质量</text>
    <line x1="605" y1="588" x2="750" y2="588" stroke="#e5e7eb" stroke-width="0.5"/>
    <text x="605" y="603" font-size="8" fill="#dc2626">适用: 入网慢</text>
    <text x="605" y="615" font-size="8" fill="#dc2626">IP获取失败</text>
    <text x="605" y="632" font-size="8" fill="#9333ea">关键:</text>
    <text x="605" y="644" font-size="8" fill="#9333ea">Discover重传但</text>
    <text x="605" y="656" font-size="8" fill="#9333ea">信号正常=AP问题</text>
    <text x="605" y="668" font-size="8" fill="#9333ea">信号差=帧丢失</text>
  </g>
  <g filter="url(#sh)">
    <rect x="770" y="486" width="165" height="207" rx="6" fill="#ffffff" stroke="#fca5a5" stroke-width="1.2"/>
    <rect x="770" y="486" width="165" height="26" rx="6" fill="#fef2f2" stroke="#fca5a5" stroke-width="1.2"/>
    <text x="852" y="504" text-anchor="middle" font-size="10.5" font-weight="600" fill="#991b1b">E. 空口效率</text>
    <text x="780" y="526" font-size="8" fill="#6b7280">• 数据帧占比(&gt;60%)</text>
    <text x="780" y="539" font-size="8" fill="#6b7280">• 管理帧开销</text>
    <text x="780" y="552" font-size="8" fill="#6b7280">  (Beacon/Probe频率)</text>
    <text x="780" y="565" font-size="8" fill="#6b7280">• 控制帧开销</text>
    <text x="780" y="578" font-size="8" fill="#6b7280">  (RTS/CTS/ACK占比)</text>
    <text x="780" y="591" font-size="8" fill="#6b7280">• 有效吞吐估算</text>
    <text x="780" y="604" font-size="8" fill="#6b7280">• 重传空口占用</text>
    <line x1="780" y1="614" x2="925" y2="614" stroke="#e5e7eb" stroke-width="0.5"/>
    <text x="780" y="629" font-size="8" fill="#dc2626">适用: 吞吐低/延迟高</text>
  </g>
  <g filter="url(#sh)">
    <rect x="945" y="486" width="210" height="207" rx="6" fill="#f0fdfa" stroke="#5eead4" stroke-width="1.2"/>
    <rect x="945" y="486" width="210" height="26" rx="6" fill="#ccfbf1" stroke="#5eead4" stroke-width="1.2"/>
    <text x="1050" y="504" text-anchor="middle" font-size="10.5" font-weight="600" fill="#115e59">F. 硬件指标 (hw_metrics)</text>
    <text x="955" y="526" font-size="8" fill="#6b7280">• 信号强度分布直方图</text>
    <text x="955" y="539" font-size="8" fill="#6b7280">• 5秒窗口稳定性(抖动/偏移)</text>
    <text x="955" y="552" font-size="8" fill="#6b7280">• 噪声底噪 + SNR估算</text>
    <text x="955" y="565" font-size="8" fill="#6b7280">• 重传帧vs正常帧信号对比</text>
    <text x="955" y="578" font-size="8" fill="#6b7280">• 帧大小分布(聚合效率)</text>
    <text x="955" y="591" font-size="8" fill="#6b7280">• 数据速率分布(MCS)</text>
    <text x="955" y="604" font-size="8" fill="#6b7280">• 天线分集分布</text>
    <text x="955" y="617" font-size="8" fill="#6b7280">• 每秒吞吐/重传趋势</text>
    <text x="955" y="630" font-size="8" fill="#6b7280">• Radiotap字段可用性</text>
    <text x="955" y="643" font-size="8" fill="#6b7280">• 硬件指标诊断总结</text>
    <line x1="955" y1="653" x2="1145" y2="653" stroke="#e5e7eb" stroke-width="0.5"/>
    <text x="955" y="668" font-size="8" fill="#0d9488">独立命令: python3 hw_metrics.py</text>
    <text x="955" y="680" font-size="8" fill="#0d9488">&lt;pcapng&gt; [mac1] [mac2]</text>
  </g>
  <path d="M 122 693 L 122 724" stroke="#ea580c" stroke-width="1.5" fill="none" marker-end="url(#ao)"/>
  <path d="M 305 693 L 305 724" stroke="#ea580c" stroke-width="1.5" fill="none" marker-end="url(#ao)"/>
  <path d="M 497 693 L 497 724" stroke="#ea580c" stroke-width="1.5" fill="none" marker-end="url(#ao)"/>
  <path d="M 677 693 L 677 724" stroke="#ea580c" stroke-width="1.5" fill="none" marker-end="url(#ao)"/>
  <path d="M 852 693 L 852 724" stroke="#ea580c" stroke-width="1.5" fill="none" marker-end="url(#ao)"/>
  <rect x="30" y="720" width="1140" height="120" rx="8" fill="#fff7ed" stroke="#fed7aa" stroke-width="1.2" stroke-dasharray="6,3"/>
  <text x="50" y="738" font-size="10" fill="#ea580c" font-weight="600">LAYER 6 · 根因定位</text>
  <g filter="url(#sh)">
    <rect x="50" y="748" width="170" height="80" rx="5" fill="#ffedd5" stroke="#fdba74" stroke-width="1"/>
    <text x="135" y="767" text-anchor="middle" font-size="10.5" font-weight="600" fill="#9a3412">分层归因</text>
    <text x="58" y="782" font-size="8.5" fill="#78350f">射频/物理层</text>
    <text x="58" y="794" font-size="8.5" fill="#78350f">→ MAC层 → 协议层</text>
    <text x="58" y="806" font-size="8.5" fill="#78350f">→ 固件层</text>
  </g>
  <g filter="url(#sh)">
    <rect x="240" y="748" width="170" height="80" rx="5" fill="#ffedd5" stroke="#fdba74" stroke-width="1"/>
    <text x="325" y="767" text-anchor="middle" font-size="10.5" font-weight="600" fill="#9a3412">因果链重建</text>
    <text x="248" y="782" font-size="8.5" fill="#78350f">信号突变→重传飙升</text>
    <text x="248" y="794" font-size="8.5" fill="#78350f">→ BA窗口溢出→DELBA</text>
    <text x="248" y="806" font-size="8.5" fill="#78350f">→ 吞吐归零→Deauth</text>
  </g>
  <g filter="url(#sh)">
    <rect x="450" y="748" width="170" height="80" rx="5" fill="#ffedd5" stroke="#fdba74" stroke-width="1"/>
    <text x="535" y="767" text-anchor="middle" font-size="10.5" font-weight="600" fill="#9a3412">问题归属</text>
    <text x="458" y="782" font-size="8.5" fill="#78350f">AP侧(你的芯片)</text>
    <text x="458" y="794" font-size="8.5" fill="#78350f">STA侧 / 环境因素</text>
    <text x="458" y="806" font-size="8.5" fill="#78350f">兼容性问题</text>
  </g>
  <g filter="url(#sh)">
    <rect x="640" y="748" width="170" height="80" rx="5" fill="#ffedd5" stroke="#fdba74" stroke-width="1"/>
    <text x="725" y="767" text-anchor="middle" font-size="10.5" font-weight="600" fill="#9a3412">交叉验证</text>
    <text x="648" y="782" font-size="8.5" fill="#78350f">帧质量必检</text>
    <text x="648" y="794" font-size="8.5" fill="#78350f">协议+射频关联</text>
    <text x="648" y="806" font-size="8.5" fill="#78350f">DHCP阶段帧质量</text>
  </g>
  <g filter="url(#sh)">
    <rect x="830" y="748" width="170" height="80" rx="5" fill="#ffedd5" stroke="#fdba74" stroke-width="1"/>
    <text x="915" y="767" text-anchor="middle" font-size="10.5" font-weight="600" fill="#9a3412">可能原因排序</text>
    <text x="838" y="782" font-size="8.5" fill="#78350f">按可能性从高到低</text>
    <text x="838" y="794" font-size="8.5" fill="#78350f">每项附证据</text>
    <text x="838" y="806" font-size="8.5" fill="#78350f">明确排除项</text>
  </g>
  <g filter="url(#sh)">
    <rect x="1020" y="748" width="170" height="80" rx="5" fill="#ffedd5" stroke="#fdba74" stroke-width="1"/>
    <text x="1105" y="767" text-anchor="middle" font-size="10.5" font-weight="600" fill="#9a3412">排查建议</text>
    <text x="1028" y="782" font-size="8.5" fill="#78350f">P1 立即可做</text>
    <text x="1028" y="794" font-size="8.5" fill="#78350f">P2 交叉验证</text>
    <text x="1028" y="806" font-size="8.5" fill="#78350f">P3 补充抓包</text>
  </g>
  <path d="M 135 828 L 135 862" stroke="#ea580c" stroke-width="1.2" fill="none" marker-end="url(#ao)"/>
  <path d="M 325 828 L 325 862" stroke="#ea580c" stroke-width="1.2" fill="none" marker-end="url(#ao)"/>
  <path d="M 535 828 L 535 862" stroke="#ea580c" stroke-width="1.2" fill="none" marker-end="url(#ao)"/>
  <path d="M 725 828 L 725 862" stroke="#ea580c" stroke-width="1.2" fill="none" marker-end="url(#ao)"/>
  <path d="M 915 828 L 915 862" stroke="#ea580c" stroke-width="1.2" fill="none" marker-end="url(#ao)"/>
  <rect x="30" y="857" width="1140" height="52" rx="8" fill="#111827" stroke="#374151" stroke-width="1.2"/>
  <text x="50" y="876" font-size="10" fill="#9ca3af" font-weight="600">OUTPUT · 诊断报告</text>
  <g filter="url(#sh)"><rect x="130" y="865" width="160" height="30" rx="5" fill="#ffffff" stroke="#d1d5db" stroke-width="1"/><text x="210" y="885" text-anchor="middle" font-size="12" font-weight="600" fill="#111827">帧质量评估</text></g>
  <g filter="url(#sh)"><rect x="340" y="865" width="160" height="30" rx="5" fill="#ffffff" stroke="#d1d5db" stroke-width="1"/><text x="420" y="885" text-anchor="middle" font-size="12" font-weight="600" fill="#111827">协议流程</text></g>
  <g filter="url(#sh)"><rect x="550" y="865" width="160" height="30" rx="5" fill="#ffffff" stroke="#d1d5db" stroke-width="1"/><text x="630" y="885" text-anchor="middle" font-size="12" font-weight="600" fill="#111827">时序还原</text></g>
  <g filter="url(#sh)"><rect x="760" y="865" width="160" height="30" rx="5" fill="#ffffff" stroke="#d1d5db" stroke-width="1"/><text x="840" y="885" text-anchor="middle" font-size="12" font-weight="600" fill="#111827">根因定位</text></g>
  <g filter="url(#sh)"><rect x="970" y="865" width="160" height="30" rx="5" fill="#ffffff" stroke="#d1d5db" stroke-width="1"/><text x="1050" y="885" text-anchor="middle" font-size="12" font-weight="600" fill="#111827">排查建议</text></g>
  <text x="1192" y="237" text-anchor="middle" font-size="8" fill="#374151" transform="rotate(-90,1192,175)">解码</text>
  <text x="1192" y="326" text-anchor="middle" font-size="8" fill="#374151" transform="rotate(-90,1192,264)">提取</text>
  <text x="1192" y="408" text-anchor="middle" font-size="8" fill="#374151" transform="rotate(-90,1192,346)">检测</text>
  <text x="1192" y="590" text-anchor="middle" font-size="8" fill="#374151" transform="rotate(-90,1192,528)">分析</text>
  <text x="1192" y="788" text-anchor="middle" font-size="8" fill="#374151" transform="rotate(-90,1192,726)">定位</text>
  <rect x="1185" y="118" width="12" height="791" rx="6" fill="#e5e7eb" stroke="#d1d5db" stroke-width="0.5"/>
  <rect x="1185" y="118" width="12" height="115" rx="6" fill="#5eead4" opacity="0.6"/>
  <rect x="1185" y="233" width="12" height="62" rx="6" fill="#16a34a" opacity="0.6"/>
  <rect x="1185" y="295" width="12" height="165" rx="6" fill="#9333ea" opacity="0.6"/>
  <rect x="1185" y="460" width="12" height="260" rx="6" fill="#dc2626" opacity="0.6"/>
  <rect x="1185" y="720" width="12" height="137" rx="6" fill="#ea580c" opacity="0.6"/>
  <g transform="translate(40, 932)">
    <text x="0" y="0" font-size="10" font-weight="600" fill="#111827">图例</text>
    <line x1="0" y1="14" x2="22" y2="14" stroke="#2563eb" stroke-width="1.5" marker-end="url(#ab)"/><text x="28" y="18" font-size="9" fill="#6b7280">数据解析</text>
    <line x1="100" y1="14" x2="122" y2="14" stroke="#9333ea" stroke-width="1.5" marker-end="url(#ap)"/><text x="128" y="18" font-size="9" fill="#6b7280">问题检测</text>
    <line x1="200" y1="14" x2="222" y2="14" stroke="#ea580c" stroke-width="1.5" marker-end="url(#ao)"/><text x="228" y="18" font-size="9" fill="#6b7280">分析推理</text>
    <rect x="310" y="6" width="28" height="12" rx="3" fill="#fef2f2" stroke="#fca5a5" stroke-width="0.8"/><text x="342" y="18" font-size="9" fill="#6b7280">分析维度</text>
    <rect x="410" y="6" width="28" height="12" rx="3" fill="#f0fdfa" stroke="#5eead4" stroke-width="0.8"/><text x="442" y="18" font-size="9" fill="#6b7280">硬件指标</text>
  </g>
  <text x="600" y="972" text-anchor="middle" font-size="9" fill="#9ca3af">典型因果链: 射频信号突变 → 重传飙升 → BA窗口溢出 → DELBA风暴 → 吞吐归零 → Deauth/Disassoc</text>
  <text x="600" y="987" text-anchor="middle" font-size="8" fill="#d1d5db">帧统计含: Beacon · Probe Req/Resp · Auth · Assoc · RTS · CTS · ACK · BAR · QoS Data · Null · Action · Deauth · Disassoc</text>
</svg>
